<svg width="583" height="584" viewBox="0 0 583 584" fill="none" xmlns="http://www.w3.org/2000/svg">
<g clip-path="url(#clip0)">
<path d="M51.125 536.144C55.0481 537.523 59.2603 537.869 63.3558 537.147C67.4512 536.426 71.2918 534.662 74.5077 532.025C82.6974 525.151 85.2657 513.829 87.3544 503.344L93.5341 472.327L80.5964 481.235C71.2918 487.642 61.7781 494.254 55.3363 503.533C48.8944 512.812 46.0841 525.48 51.2584 535.521" fill="#E6E6E6"/>
<path d="M53.1227 575.855C51.4943 563.991 49.8189 551.974 50.9638 539.983C51.9785 529.334 55.2276 518.934 61.8422 510.404C65.3532 505.885 69.6254 502.014 74.4668 498.963C75.729 498.167 76.8909 500.167 75.6342 500.96C67.257 506.254 60.7774 514.072 57.1297 523.286C53.1011 533.532 52.4542 544.702 53.1481 555.586C53.5676 562.168 54.4589 568.707 55.354 575.239C55.4247 575.534 55.3806 575.845 55.2306 576.109C55.0806 576.373 54.8359 576.571 54.546 576.661C54.2503 576.741 53.9351 576.701 53.6688 576.549C53.4025 576.398 53.2065 576.148 53.1235 575.853L53.1227 575.855Z" fill="#F2F2F2"/>
<path d="M64.8437 556.818C66.526 559.376 68.8388 561.458 71.5591 562.862C74.2794 564.267 77.3156 564.947 80.3751 564.837C88.2395 564.464 94.7932 558.977 100.692 553.767L118.144 538.358L106.594 537.805C98.2882 537.407 89.7677 537.034 81.8563 539.598C73.9449 542.163 66.6487 548.325 65.2022 556.514" fill="#E6E6E6"/>
<path d="M48.5197 582.674C56.3594 568.803 65.452 553.387 81.7005 548.459C86.218 547.094 90.9548 546.605 95.6559 547.018C97.1378 547.146 96.7677 549.43 95.2889 549.303C87.4085 548.648 79.5433 550.729 73.0173 555.195C66.7374 559.469 61.8476 565.412 57.7095 571.714C55.1744 575.574 52.9038 579.598 50.6331 583.617C49.9075 584.901 47.7857 583.974 48.5197 582.674Z" fill="#F2F2F2"/>
<path d="M578.752 461H213.248C212.122 460.998 211.042 460.404 210.246 459.349C209.45 458.294 209.001 456.863 209 455.371V5.62881C209.001 4.13656 209.45 2.70597 210.246 1.65079C211.042 0.595612 212.122 0.00195075 213.248 0H578.752C579.878 0.00195075 580.958 0.595612 581.754 1.65079C582.55 2.70597 582.999 4.13656 583 5.62881V455.37C582.999 456.862 582.551 458.293 581.754 459.349C580.958 460.404 579.878 460.997 578.752 460.999V461Z" fill="white"/>
<path d="M578.752 461H213.248C212.122 460.998 211.042 460.404 210.246 459.349C209.45 458.294 209.001 456.863 209 455.371V5.62881C209.001 4.13656 209.45 2.70597 210.246 1.65079C211.042 0.595612 212.122 0.00195075 213.248 0H578.752C579.878 0.00195075 580.958 0.595612 581.754 1.65079C582.55 2.70597 582.999 4.13656 583 5.62881V455.37C582.999 456.862 582.551 458.293 581.754 459.349C580.958 460.404 579.878 460.997 578.752 460.999V461ZM213.248 2.24709C212.573 2.24903 211.926 2.60517 211.449 3.23756C210.972 3.86994 210.703 4.72709 210.702 5.62142V455.37C210.703 456.264 210.972 457.122 211.449 457.754C211.926 458.386 212.573 458.743 213.248 458.744H578.752C579.427 458.743 580.074 458.387 580.551 457.754C581.028 457.122 581.297 456.265 581.298 455.37V5.62881C581.297 4.73448 581.028 3.87733 580.551 3.24494C580.074 2.61256 579.427 2.25642 578.752 2.25447L213.248 2.24709Z" fill="#CACACA"/>
<path d="M385.879 117C385.115 117.002 384.383 117.424 383.843 118.174C383.303 118.924 383 119.94 383 121C383 122.06 383.303 123.076 383.843 123.826C384.383 124.576 385.115 124.998 385.879 125H544.121C544.885 124.998 545.617 124.576 546.157 123.826C546.697 123.076 547 122.06 547 121C547 119.94 546.697 118.924 546.157 118.174C545.617 117.424 544.885 117.002 544.121 117H385.879Z" fill="#E4E4E4"/>
<path d="M417.424 140C416.515 140.003 415.644 140.425 415.002 141.175C414.361 141.925 414 142.941 414 144C414 145.059 414.361 146.075 415.002 146.825C415.644 147.575 416.515 147.997 417.424 148H513.576C514.485 147.997 515.356 147.575 515.998 146.825C516.639 146.075 517 145.059 517 144C517 142.941 516.639 141.925 515.998 141.175C515.356 140.425 514.485 140.003 513.576 140H417.424Z" fill="#E4E4E4"/>
<path d="M246.882 264C246.117 264.002 245.384 264.372 244.844 265.028C244.303 265.684 244 266.573 244 267.5C244 268.427 244.303 269.316 244.844 269.972C245.384 270.628 246.117 270.998 246.882 271H544.118C544.883 270.998 545.616 270.628 546.156 269.972C546.697 269.316 547 268.427 547 267.5C547 266.573 546.697 265.684 546.156 265.028C545.616 264.372 544.883 264.002 544.118 264H246.882Z" fill="#E4E4E4"/>
<path d="M254.401 286C253.498 286.003 252.633 286.425 251.996 287.175C251.358 287.925 251 288.941 251 290C251 291.059 251.358 292.075 251.996 292.825C252.633 293.575 253.498 293.997 254.401 294H513.599C514.502 293.997 515.367 293.575 516.004 292.825C516.642 292.075 517 291.059 517 290C517 288.941 516.642 287.925 516.004 287.175C515.367 286.425 514.502 286.003 513.599 286H254.401Z" fill="#E4E4E4"/>
<path d="M246.882 308C246.117 308.003 245.384 308.425 244.844 309.175C244.303 309.925 244 310.941 244 312C244 313.059 244.303 314.075 244.844 314.825C245.384 315.575 246.117 315.997 246.882 316H544.118C544.883 315.997 545.616 315.575 546.156 314.825C546.697 314.075 547 313.059 547 312C547 310.941 546.697 309.925 546.156 309.175C545.616 308.425 544.883 308.003 544.118 308H246.882Z" fill="#E4E4E4"/>
<path d="M254.401 332C253.498 332.002 252.633 332.372 251.996 333.028C251.358 333.684 251 334.573 251 335.5C251 336.427 251.358 337.316 251.996 337.972C252.633 338.628 253.498 338.998 254.401 339H513.599C514.502 338.998 515.367 338.628 516.004 337.972C516.642 337.316 517 336.427 517 335.5C517 334.573 516.642 333.684 516.004 333.028C515.367 332.372 514.502 332.002 513.599 332H254.401Z" fill="#E4E4E4"/>
<path d="M246.882 354C246.117 354.003 245.384 354.425 244.844 355.175C244.303 355.925 244 356.941 244 358C244 359.059 244.303 360.075 244.844 360.825C245.384 361.575 246.117 361.997 246.882 362H544.118C544.883 361.997 545.616 361.575 546.156 360.825C546.697 360.075 547 359.059 547 358C547 356.941 546.697 355.925 546.156 355.175C545.616 354.425 544.883 354.003 544.118 354H246.882Z" fill="#E4E4E4"/>
<path d="M254.401 378C253.498 378.002 252.633 378.372 251.996 379.028C251.358 379.684 251 380.573 251 381.5C251 382.427 251.358 383.316 251.996 383.972C252.633 384.628 253.498 384.998 254.401 385H513.599C514.502 384.998 515.367 384.628 516.004 383.972C516.642 383.316 517 382.427 517 381.5C517 380.573 516.642 379.684 516.004 379.028C515.367 378.372 514.502 378.002 513.599 378H254.401Z" fill="#E4E4E4"/>
<path d="M309.839 166.944C300.147 166.944 290.674 164.071 282.616 158.686C274.558 153.302 268.277 145.65 264.568 136.696C260.86 127.742 259.889 117.89 261.78 108.385C263.67 98.8799 268.337 90.1489 275.19 83.2961C282.043 76.4433 290.774 71.7764 300.279 69.8857C309.784 67.995 319.636 68.9654 328.59 72.674C337.543 76.3827 345.196 82.6632 350.58 90.7212C355.964 98.7792 358.838 108.253 358.838 117.944C358.824 130.935 353.656 143.39 344.47 152.576C335.284 161.762 322.83 166.929 309.839 166.944V166.944Z" fill="#0E9799"/>
<path d="M161.098 352.216C161.013 350.428 160.537 348.68 159.704 347.095C158.87 345.51 157.699 344.128 156.274 343.044C154.848 341.961 153.202 341.204 151.452 340.825C149.702 340.447 147.89 340.457 146.145 340.854L129.948 318.029L113.677 324.488L137.002 356.401C137.864 359.289 139.756 361.761 142.319 363.348C144.882 364.935 147.938 365.527 150.908 365.011C153.878 364.495 156.556 362.908 158.434 360.55C160.312 358.192 161.26 355.227 161.098 352.216H161.098Z" fill="#A0616A"/>
<path d="M129.531 350.525L80.5237 286.947L98.8864 229.236C100.232 214.727 109.311 210.675 109.698 210.51L110.287 210.257L126.266 252.869L114.534 284.155L143.33 332.587L129.531 350.525Z" fill="#3F3D56"/>
<path d="M299.727 154.536C297.951 154.759 296.244 155.368 294.729 156.322C293.213 157.275 291.925 158.549 290.956 160.055C289.986 161.56 289.358 163.259 289.116 165.033C288.874 166.807 289.024 168.613 289.555 170.323L268.05 188.235L275.749 203.959L305.762 178.236C308.575 177.153 310.894 175.076 312.278 172.398C313.662 169.72 314.015 166.627 313.271 163.705C312.528 160.784 310.738 158.237 308.242 156.547C305.745 154.857 302.716 154.142 299.727 154.536V154.536Z" fill="#FABDBD"/>
<path d="M300.481 186.138L240.883 239.915L181.925 226.069C167.355 225.85 162.613 217.111 162.419 216.738L162.121 216.17L203.37 196.944L235.47 206.223L281.53 173.768L300.481 186.138Z" fill="#3F3D56"/>
<path d="M197.248 568.437L213.261 568.436L220.878 506.672L197.245 506.673L197.248 568.437Z" fill="#FABDBD"/>
<path d="M244.143 583.304L193.817 583.306L193.816 563.862L230.023 563.86C233.768 563.86 237.359 565.348 240.007 567.995C242.655 570.643 244.143 574.234 244.143 577.979L244.143 583.304L244.143 583.304Z" fill="#2F2E41"/>
<path d="M133.247 568.437L149.26 568.436L156.878 506.672L133.245 506.673L133.247 568.437Z" fill="#FABDBD"/>
<path d="M180.143 583.304L129.817 583.306L129.816 563.862L166.023 563.86C167.877 563.86 169.713 564.225 171.426 564.935C173.139 565.644 174.696 566.684 176.007 567.995C177.318 569.306 178.358 570.863 179.068 572.576C179.777 574.289 180.142 576.125 180.142 577.979L180.143 583.304V583.304Z" fill="#2F2E41"/>
<path d="M127.552 342.991L128.858 434.42L130.165 554.584L158.899 551.972L173.267 386.094L191.553 551.972H221.218L224.206 384.788L213.757 348.216L127.552 342.991Z" fill="#2F2E41"/>
<path d="M183.793 355.269C152.528 355.272 123.749 341.121 123.36 340.926L123.038 340.765L120.414 277.799C119.653 275.574 104.671 231.668 102.134 217.713C99.5629 203.574 136.822 191.165 141.347 189.714L142.374 178.34L184.127 173.841L189.419 188.394L204.399 194.011C206.097 194.648 207.502 195.887 208.349 197.491C209.195 199.095 209.423 200.954 208.991 202.715L200.665 236.572L220.999 348.584L216.621 348.774C206.128 353.513 194.804 355.269 183.793 355.269Z" fill="#3F3D56"/>
<path d="M179.305 162.953C193.873 154.989 199.227 136.723 191.263 122.154C183.299 107.586 165.033 102.232 150.465 110.196C135.896 118.159 130.542 136.426 138.506 150.994C146.47 165.563 164.736 170.917 179.305 162.953Z" fill="#FABDBD"/>
<path d="M140.536 165.677C146.265 171.78 156.905 168.504 157.652 160.167C157.71 159.519 157.706 158.868 157.639 158.221C157.254 154.528 155.12 151.175 155.631 147.276C155.747 146.306 156.108 145.381 156.681 144.589C161.247 138.475 171.964 147.323 176.273 141.789C178.915 138.395 175.809 133.052 177.837 129.259C180.513 124.253 188.439 126.723 193.409 123.981C198.939 120.931 198.608 112.446 194.968 107.285C190.528 100.991 182.744 97.6329 175.058 97.1488C167.371 96.6648 159.737 98.7428 152.56 101.54C144.406 104.717 136.32 109.109 131.303 116.279C125.2 124.998 124.613 136.72 127.665 146.915C129.522 153.117 135.857 160.694 140.536 165.677Z" fill="#2F2E41"/>
<path d="M382 584.079H1C0.734784 584.079 0.480414 583.973 0.292877 583.786C0.105341 583.598 0 583.344 0 583.079C0 582.813 0.105341 582.559 0.292877 582.372C0.480414 582.184 0.734784 582.079 1 582.079H382C382.265 582.079 382.52 582.184 382.707 582.372C382.895 582.559 383 582.813 383 583.079C383 583.344 382.895 583.598 382.707 583.786C382.52 583.973 382.265 584.079 382 584.079Z" fill="#CACACA"/>
<path d="M307.009 136.452C306.125 136.453 305.274 136.118 304.628 135.516L288.471 120.509C287.792 119.877 287.391 119.001 287.357 118.074C287.324 117.147 287.659 116.244 288.291 115.565C288.922 114.885 289.797 114.484 290.724 114.449C291.651 114.414 292.554 114.749 293.234 115.38L306.92 128.092L333.996 101.015C334.321 100.688 334.707 100.429 335.132 100.251C335.557 100.074 336.013 99.9818 336.474 99.981C336.935 99.9801 337.391 100.07 337.817 100.246C338.243 100.422 338.63 100.68 338.956 101.006C339.282 101.332 339.54 101.719 339.716 102.145C339.892 102.571 339.982 103.027 339.981 103.488C339.98 103.949 339.888 104.405 339.71 104.83C339.533 105.255 339.273 105.641 338.946 105.966L309.485 135.427C309.16 135.752 308.774 136.01 308.349 136.186C307.924 136.362 307.469 136.452 307.009 136.452V136.452Z" fill="white"/>
</g>
<defs>
<clipPath id="clip0">
<rect width="583" height="584" fill="white"/>
</clipPath>
</defs>
</svg>
